<?xml version="1.0" encoding="UTF-8"?>
<svg xmlns="http://www.w3.org/2000/svg" width="3000" height="3000" viewBox="0 0 3000 3000">
  <defs>
    <style>
      .cls-1 {
        fill: #42d9c5;
      }

      .cls-1, .cls-2, .cls-3, .cls-4, .cls-5, .cls-6, .cls-7, .cls-8, .cls-9, .cls-10, .cls-11, .cls-12, .cls-13, .cls-14 {
        stroke-width: 0px;
      }

      .cls-2 {
        fill: #f1bb79;
      }

      .cls-3 {
        fill: #b294bb;
      }

      .cls-4 {
        fill: #f56e7f;
      }

      .cls-5 {
        fill: none;
      }

      .cls-6 {
        fill: #e8d6a7;
      }

      .cls-7 {
        fill: #37cb8a;
      }

      .cls-8 {
        fill: #80c5de;
      }

      .cls-9 {
        fill: #bec975;
      }

      .cls-10 {
        fill: #e5a1a3;
      }

      .cls-11 {
        fill: #d286b7;
      }

      .cls-12 {
        fill: #f58669;
      }

      .cls-13 {
        fill: #d5d0c9;
      }

      .cls-14 {
        fill: #9dccbb;
      }
    </style>
  </defs>
  <g id="background">
    <rect class="cls-5" x="75" y="75" width="2850" height="2850"/>
    <rect class="cls-5" width="3000" height="3000"/>
  </g>
  <g id="colors">
    <g>
      <circle class="cls-4" cx="1177" cy="934.000000000000909" r="302.999999999999545"/>
      <circle class="cls-11" cx="1823.000000000005457" cy="933.999999999999091" r="303.000000000003183"/>
      <circle class="cls-9" cx="1177.000000000000909" cy="2065.999999999995453" r="303.000000000002728"/>
      <circle class="cls-12" cx="863.000000000000455" cy="1500.000000000001364" r="302.999999999999545"/>
      <circle class="cls-1" cx="2136.999999999997272" cy="1499.999999999995907" r="303.000000000000682"/>
      <circle class="cls-7" cx="1823.000000000000909" cy="2065.999999999997272" r="303.000000000001819"/>
      <circle class="cls-13" cx="1500.000000000002728" cy="1499.999999999997726" r="303.000000000002501"/>
      <circle class="cls-10" cx="1499.999999999999091" cy="378" r="302.999999999999545"/>
      <circle class="cls-14" cx="1499.999999999999091" cy="2622.000000000001819" r="302.999999999998636"/>
      <circle class="cls-8" cx="2469.999999999998181" cy="2045.999999999996362" r="303.000000000000909"/>
      <g>
        <path class="cls-3" d="M2470,1256.875c-80.900390625,0-156.958984375-31.50439453125-214.1650390625-88.7099609375-57.205078125-57.20556640625-88.7099609375-133.26416015625-88.7099609375-214.1650390625s31.5048828125-156.95947265625,88.7099609375-214.1650390625c57.2060546875-57.20556640625,133.2646484375-88.7099609375,214.1650390625-88.7099609375s156.958984375,31.50439453125,214.1650390625,88.7099609375c57.205078125,57.20556640625,88.7099609375,133.26416015625,88.7099609375,214.1650390625s-31.5048828125,156.95947265625-88.7099609375,214.1650390625c-57.2060546875,57.20556640625-133.2646484375,88.7099609375-214.1650390625,88.7099609375Z"/>
        <path class="cls-13" d="M2470,651.25c40.87109375,0,80.51953125,8.004638671875,117.843994140625,23.79144287109375,36.05126953125,15.2484130859375,68.428466796875,37.077880859375,96.232666015625,64.8819580078125,27.803955078125,27.80413818359375,49.633544921875,60.18145751953125,64.8818359375,96.232666015625,15.786865234375,37.32440185546875,23.79150390625,76.97283935546875,23.79150390625,117.84393310546875s-8.004638671875,80.51953125-23.79150390625,117.8438720703125c-15.248291015625,36.05126953125-37.077880859375,68.4285888671875-64.8818359375,96.2327880859375-27.80419921875,27.8040771484375-60.181396484375,49.633544921875-96.232666015625,64.8818359375-37.324462890625,15.786865234375-76.972900390625,23.79150390625-117.843994140625,23.79150390625s-80.51953125-8.004638671875-117.843994140625-23.79150390625c-36.05126953125-15.248291015625-68.428466796875-37.0777587890625-96.232666015625-64.8818359375-27.803955078125-27.80419921875-49.633544921875-60.1815185546875-64.8818359375-96.2327880859375-15.786865234375-37.3243408203125-23.79150390625-76.9727783203125-23.79150390625-117.8438720703125s8.004638671875-80.51953125,23.79150390625-117.84393310546875c15.248291015625-36.05120849609375,37.077880859375-68.42852783203125,64.8818359375-96.232666015625,27.80419921875-27.8040771484375,60.181396484375-49.633544921875,96.232666015625-64.8819580078125,37.324462890625-15.78680419921875,76.972900390625-23.79144287109375,117.843994140625-23.79144287109375M2470,651c-167.34228515625,0-303,135.65771484375-303,303s135.65771484375,303,303,303,303-135.65771484375,303-303-135.65771484375-303-303-303h0Z"/>
      </g>
      <circle class="cls-6" cx="529.999999999997726" cy="2046.000000000000909" r="302.999999999998408"/>
      <circle class="cls-2" cx="529.999999999999091" cy="954.000000000000909" r="302.999999999999091"/>
    </g>
  </g>
</svg>