<?xml version="1.0" encoding="UTF-8"?>
<svg xmlns="http://www.w3.org/2000/svg" width="3000" height="3000" viewBox="0 0 3000 3000">
  <defs>
    <style>
      .cls-1 {
        fill: #42d9c5;
      }

      .cls-1, .cls-2, .cls-3, .cls-4, .cls-5, .cls-6, .cls-7, .cls-8, .cls-9, .cls-10, .cls-11, .cls-12, .cls-13, .cls-14, .cls-15 {
        stroke-width: 0px;
      }

      .cls-2 {
        fill: #181818;
      }

      .cls-3 {
        fill: #000;
      }

      .cls-4 {
        fill: #f1bb79;
      }

      .cls-5 {
        fill: #b294bb;
      }

      .cls-6 {
        fill: #f56e7f;
      }

      .cls-7 {
        fill: #e8d6a7;
      }

      .cls-8 {
        fill: #37cb8a;
      }

      .cls-9 {
        fill: #80c5de;
      }

      .cls-10 {
        fill: #bec975;
      }

      .cls-11 {
        fill: #e5a1a3;
      }

      .cls-12 {
        fill: #d286b7;
      }

      .cls-13 {
        fill: #f58669;
      }

      .cls-14 {
        fill: #d5d0c9;
      }

      .cls-15 {
        fill: #9dccbb;
      }
    </style>
  </defs>
  <g id="background">
    <g>
      <path class="cls-2" d="M1499.99853515625,2999.5c-202.43115234375,0-398.80712890625-39.646484375-583.67236328125-117.837890625-88.85107421875-37.5810546875-174.54833984375-84.095703125-254.7109375-138.2529296875-79.4013671875-53.642578125-154.06689453125-115.24609375-221.92236328125-183.1025390625-67.85546875-67.85546875-129.4599609375-142.5205078125-183.1025390625-221.921875-54.15625-80.162109375-100.67138671875-165.859375-138.25244140625-254.7109375C40.146484375,1898.80859375.5,1702.4326171875.5,1500.00146484375c0-202.43408203125,39.646484375-398.81005859375,117.837890625-583.67529296875,37.5810546875-88.85107421875,84.09619140625-174.54833984375,138.25244140625-254.7109375,53.642578125-79.4013671875,115.2470703125-154.06689453125,183.1025390625-221.92236328125s142.52099609375-129.4599609375,221.92236328125-183.1025390625c80.16259765625-54.15625,165.85986328125-100.67138671875,254.7109375-138.25244140625C1101.19140625,40.146484375,1297.5673828125.5,1499.99853515625.5c202.43408203125,0,398.81005859375,39.646484375,583.67529296875,117.837890625,88.8515625,37.5810546875,174.548828125,84.09619140625,254.7109375,138.25244140625,79.4013671875,53.642578125,154.06640625,115.2470703125,221.921875,183.1025390625,67.8564453125,67.85546875,129.4599609375,142.52099609375,183.1025390625,221.92236328125,54.1572265625,80.16259765625,100.671875,165.85986328125,138.2529296875,254.7109375,78.19140625,184.865234375,117.837890625,381.2412109375,117.837890625,583.67236328125,0,202.43408203125-39.646484375,398.81005859375-117.837890625,583.67529296875-37.5810546875,88.8515625-84.095703125,174.548828125-138.2529296875,254.7109375-53.642578125,79.4013671875-115.24609375,154.06640625-183.1025390625,221.921875-67.85546875,67.8564453125-142.5205078125,129.4599609375-221.921875,183.1025390625-80.162109375,54.1572265625-165.859375,100.671875-254.7109375,138.2529296875-184.865234375,78.19140625-381.2412109375,117.837890625-583.67236328125,117.837890625h-.0029296875Z"/>
      <path class="cls-3" d="M1500.0015869140625,1c101.7056884765625,0,203.3472900390625,10.246153831481934,302.1014404296875,30.454231262207031,96.243896484375,19.694614410400391,190.912353515625,49.081153869628906,281.375732421875,87.344230651855469,88.822021484375,37.568069458007812,174.490478515625,84.06768798828125,254.626220703125,138.20654296875,79.375,53.624237060546875,154.015380859375,115.208465576171875,221.848388671875,183.041534423828125,67.833251953125,67.83306884765625,129.41748046875,142.473480224609375,183.041748046875,221.848480224609375,54.138671875,80.1357421875,100.638427734375,165.80419921875,138.20654296875,254.62615966796875,38.262939453125,90.46343994140625,67.6494140625,185.13189697265625,87.343994140625,281.37579345703125,20.208251953125,98.754150390625,30.454345703125,200.395751953125,30.454345703125,302.1046142578125,0,101.7056884765625-10.24609375,203.3472900390625-30.454345703125,302.1014404296875-19.694580078125,96.243896484375-49.0810546875,190.912353515625-87.343994140625,281.375732421875-37.568115234375,88.822021484375-84.06787109375,174.490478515625-138.20654296875,254.626220703125-53.624267578125,79.375-115.20849609375,154.015380859375-183.041748046875,221.848388671875-67.8330078125,67.833251953125-142.473388671875,129.41748046875-221.848388671875,183.041748046875-80.1357421875,54.138671875-165.80419921875,100.638427734375-254.626220703125,138.20654296875-90.46337890625,38.262939453125-185.1318359375,67.6494140625-281.375732421875,87.343994140625-98.754150390625,20.208251953125-200.395751953125,30.454345703125-302.1046142578125,30.454345703125-101.7056884765625,0-203.3472900390625-10.24609375-302.1014404296875-30.454345703125-96.243896484375-19.694580078125-190.912353515625-49.0810546875-281.37579345703125-87.343994140625-88.82196044921875-37.568115234375-174.49041748046875-84.06787109375-254.62615966796875-138.20654296875-79.375-53.624267578125-154.015411376953125-115.20849609375-221.848480224609375-183.041748046875-67.83306884765625-67.8330078125-129.41729736328125-142.473388671875-183.041534423828125-221.848388671875-54.13885498046875-80.1357421875-100.638473510742188-165.80419921875-138.20654296875-254.626220703125-38.263076782226562-90.46337890625-67.649616241455078-185.1318359375-87.344230651855469-281.375732421875-20.208077430725098-98.754150390625-30.454231262207031-200.395751953125-30.454231262207031-302.1046142578125,0-101.7056884765625,10.246153831481934-203.3472900390625,30.454231262207031-302.1014404296875,19.694614410400391-96.243896484375,49.081153869628906-190.912353515625,87.344230651855469-281.37579345703125,37.568069458007812-88.82196044921875,84.06768798828125-174.49041748046875,138.20654296875-254.62615966796875,53.624237060546875-79.375,115.208465576171875-154.015411376953125,183.041534423828125-221.848480224609375s142.473480224609375-129.41729736328125,221.848480224609375-183.041534423828125c80.1357421875-54.13885498046875,165.80419921875-100.638473510742188,254.62615966796875-138.20654296875,90.46343994140625-38.263076782226562,185.13189697265625-67.649616241455078,281.37579345703125-87.344230651855469,98.754150390625-20.208077430725098,200.395751953125-30.454231262207031,302.1014404296875-30.454231262207031h.003173828125M1500.0015869140625,0h-.003173828125C671.57232666015625,0,0,671.57232666015625,0,1499.9984130859375v.003173828125c0,828.4261474609375,671.57232666015625,1499.9984130859375,1499.9984130859375,1499.9984130859375h.003173828125c828.4261474609375,0,1499.9984130859375-671.572265625,1499.9984130859375-1499.9984130859375v-.003173828125C3000,671.57232666015625,2328.427734375,0,1500.0015869140625,0h0Z"/>
    </g>
  </g>
  <g id="colors">
    <g>
      <circle class="cls-6" cx="1210.064167510975039" cy="992.612293144209161" r="271.814842958458939"/>
      <circle class="cls-12" cx="1789.935832489028144" cy="992.612293144208252" r="271.814842958461441"/>
      <circle class="cls-10" cx="1210.064167510975949" cy="2007.387706855785837" r="271.814842958461895"/>
      <circle class="cls-13" cx="929.188829787235136" cy="1500.000000000001137" r="271.814842958459963"/>
      <circle class="cls-1" cx="2070.811170212763045" cy="1499.999999999996589" r="271.814842958460815"/>
      <circle class="cls-8" cx="1789.935832489024506" cy="2007.387706855787656" r="271.814842958460758"/>
      <circle class="cls-14" cx="1500.000000000002728" cy="1499.999999999998408" r="271.814842958462009"/>
      <circle class="cls-11" cx="1499.999999999999091" cy="494.285081053699514" r="271.814842958458826"/>
      <circle class="cls-15" cx="1499.999999999999091" cy="2505.714918946299349" r="271.814842958458712"/>
      <circle class="cls-9" cx="2369.80749746706897" cy="1989.266717325225727" r="271.814842958460304"/>
      <g>
        <path class="cls-5" d="M2369.8076171875,1282.42333984375c-72.5712890625,0-140.798828125-28.2607421875-192.1142578125-79.576171875s-79.576171875-119.54296875-79.576171875-192.11376953125,28.2607421875-140.79833984375,79.576171875-192.11376953125,119.54296875-79.576171875,192.1142578125-79.576171875,140.7978515625,28.2607421875,192.11328125,79.576171875,79.576171875,119.54296875,79.576171875,192.11376953125-28.2607421875,140.79833984375-79.576171875,192.11376953125-119.5419921875,79.576171875-192.11328125,79.576171875Z"/>
        <path class="cls-14" d="M2369.8076171875,739.16845703125c36.6611328125,0,72.2255859375,7.18011474609375,105.705078125,21.3408203125,32.337890625,13.67767333984375,61.380126953125,33.258544921875,86.320068359375,58.19866943359375,24.940185546875,24.94012451171875,44.52099609375,53.982421875,58.19873046875,86.32012939453125,14.16064453125,33.47967529296875,21.3408203125,69.0440673828125,21.3408203125,105.7052001953125s-7.18017578125,72.2254638671875-21.3408203125,105.7052001953125c-13.677734375,32.337646484375-33.258544921875,61.3800048828125-58.19873046875,86.320068359375-24.93994140625,24.940185546875-53.982177734375,44.52099609375-86.320068359375,58.19873046875-33.4794921875,14.1607666015625-69.0439453125,21.3408203125-105.705078125,21.3408203125s-72.2255859375-7.1800537109375-105.705322265625-21.3408203125c-32.337646484375-13.677734375-61.380126953125-33.258544921875-86.320068359375-58.19873046875-24.940185546875-24.9400634765625-44.52099609375-53.9822998046875-58.19873046875-86.320068359375-14.16064453125-33.479736328125-21.3408203125-69.0440673828125-21.3408203125-105.7052001953125s7.18017578125-72.22552490234375,21.3408203125-105.7052001953125c13.677734375-32.33770751953125,33.258544921875-61.3800048828125,58.19873046875-86.32012939453125,24.93994140625-24.94012451171875,53.982421875-44.52099609375,86.320068359375-58.19866943359375,33.479736328125-14.16070556640625,69.044189453125-21.3408203125,105.705322265625-21.3408203125M2369.8076171875,738.91845703125c-150.119384765625,0-271.81494140625,121.69561767578125-271.81494140625,271.8148193359375,0,150.119140625,121.695556640625,271.8148193359375,271.81494140625,271.8148193359375,150.119140625,0,271.814697265625-121.6956787109375,271.814697265625-271.8148193359375,0-150.11920166015625-121.695556640625-271.8148193359375-271.814697265625-271.8148193359375h0Z"/>
      </g>
      <circle class="cls-7" cx="630.192502532927392" cy="1989.266717325228456" r="271.814842958458939"/>
      <circle class="cls-4" cx="630.192502532928302" cy="1010.733282674773591" r="271.81484295845928"/>
    </g>
  </g>
</svg>